<svg width="201" height="40" viewBox="0 0 201 40" fill="none" xmlns="http://www.w3.org/2000/svg">
<path d="M58.5078 17.0992L45.7309 9.70103L42.5243 11.5506V7.84442L39.3248 5.9878L29.7475 0.432129L20.1419 5.99489L16.9495 7.84442V11.5506L13.757 9.70103L0.958984 17.0992V31.9237L13.757 39.336L26.5339 31.9237L23.3344 30.0671L13.75 35.6228L4.16556 30.0813V18.9133L13.7711 13.3718L16.9636 15.2284V22.6194L20.1631 24.4689L23.3555 26.3255L26.555 28.1751L29.7546 30.0317L32.9611 28.2247L36.1536 26.3751L42.5526 22.6619V15.2638L45.7592 13.4143L55.3365 18.9699V30.0884L45.7521 35.6441L36.1536 30.0884L32.9611 31.9237L45.738 39.3431L58.5148 31.9308V17.1062L58.5078 17.0992ZM23.0518 8.00741L29.7404 4.11701L39.3178 9.67978V13.3788L29.7334 18.9133L20.149 13.3576V9.69395L23.0589 8.01449L23.0518 8.00741ZM39.3319 20.8549L36.1253 22.7115L32.9541 24.5114L29.7546 26.361L26.555 24.5114L23.3555 22.6619L20.149 20.8549V17.0921L26.5339 20.7982L29.7404 22.6548L32.947 20.8549L36.1253 19.0054L37.1424 18.4243L39.3319 17.1629V20.862V20.8549Z" fill="white"/>
<path d="M80.8337 11.7593C82.8333 11.7593 84.3735 12.1916 85.4544 13.0563C86.5353 13.921 87.1027 15.1369 87.1027 16.6501C87.1027 17.7851 86.8055 18.7038 86.238 19.4334C85.6436 20.1629 84.8059 20.6764 83.725 20.9466C86.4812 21.487 87.8863 22.9732 87.8863 25.4592C87.8863 27.0805 87.2919 28.3775 86.1029 29.2962C84.914 30.215 83.2386 30.6743 81.0229 30.6743H74.1324V11.7593H80.8337ZM76.4833 19.9738H80.9418C82.1308 19.9738 83.0765 19.7036 83.752 19.1632C84.4006 18.6227 84.7518 17.8931 84.7518 16.9204C84.7518 15.9746 84.4006 15.245 83.752 14.7046C83.1035 14.1642 82.1578 13.894 80.9418 13.894H76.4833V19.9738ZM76.4833 28.5396H81.0229C82.455 28.5396 83.5629 28.2694 84.3195 27.7019C85.0761 27.1615 85.4814 26.3779 85.4814 25.3781C85.4814 24.3243 85.0761 23.5136 84.3195 22.9462C83.5359 22.3787 82.428 22.0815 81.0229 22.0815H76.4833V28.5396ZM93.0789 11.7593V22.73C93.0789 26.7022 94.6732 28.6747 97.9158 28.6747C101.158 28.6747 102.807 26.7022 102.807 22.73V11.7593H105.158V22.5949C105.158 25.297 104.536 27.3507 103.293 28.7558C102.05 30.1609 100.267 30.8364 97.9158 30.8364C95.5379 30.8364 93.7544 30.1609 92.5385 28.7558C91.3225 27.3507 90.728 25.297 90.728 22.5949V11.7593H93.0789ZM108.052 11.7593H122.157V13.4616L110.862 28.5126H122.508V30.6743H107.7V28.972L118.995 13.921H108.052V11.7593ZM124.492 11.7593H138.597V13.4616L127.302 28.5126H138.948V30.6743H124.14V28.972L135.435 13.921H124.492V11.7593ZM148.679 11.7322H151.03V19.9738H160.812V11.7322H163.163V30.6743H160.812V22.1355H151.03V30.6743H148.679V11.7322ZM174.103 11.7593C175.346 11.7593 176.427 12.0024 177.4 12.4888C178.345 12.9752 179.075 13.6508 179.588 14.5154C180.102 15.3801 180.372 16.407 180.372 17.5689C180.372 18.7578 180.102 19.7846 179.588 20.6493C179.048 21.541 178.318 22.2166 177.373 22.703C176.427 23.1894 175.346 23.4055 174.103 23.4055H169.185V30.6743H166.834V11.7593H174.103ZM169.185 21.2438H173.887C175.13 21.2438 176.103 20.9195 176.859 20.244C177.589 19.5955 177.967 18.7038 177.967 17.5689C177.967 16.461 177.589 15.5693 176.859 14.9208C176.13 14.2723 175.157 13.921 173.914 13.921H169.185V21.2438ZM183.283 16.1908C184.013 14.7316 185.067 13.6237 186.445 12.8131C187.796 12.0024 189.39 11.5971 191.201 11.5971C193.281 11.5971 195.038 12.1646 196.443 13.2995C197.848 14.4344 198.74 16.0016 199.118 17.9472H196.767C196.416 16.6501 195.74 15.6233 194.741 14.8667C193.741 14.1371 192.525 13.7588 191.093 13.7588C189.796 13.7588 188.634 14.0831 187.661 14.7046C186.661 15.3531 185.905 16.2178 185.364 17.3527C184.824 18.4876 184.581 19.7576 184.581 21.2168C184.581 22.6759 184.824 23.946 185.364 25.0809C185.905 26.2158 186.661 27.1075 187.661 27.729C188.634 28.3775 189.796 28.6747 191.093 28.6747C192.552 28.6747 193.768 28.3234 194.741 27.5939C195.713 26.8643 196.362 25.8375 196.74 24.4864H199.091C198.713 26.459 197.848 27.9992 196.443 29.1341C195.038 30.269 193.308 30.8364 191.201 30.8364C189.39 30.8364 187.796 30.4581 186.445 29.6475C185.067 28.8369 184.013 27.729 183.283 26.2698C182.527 24.8106 182.176 23.1353 182.176 21.2168C182.176 19.3253 182.527 17.6499 183.283 16.1908Z" fill="white"/>
</svg>
