<?xml version="1.0" standalone="no"?>
<!DOCTYPE svg PUBLIC "-//W3C//DTD SVG 20010904//EN" "http://www.w3.org/TR/2001/REC-SVG-20010904/DTD/svg10.dtd">
<svg xmlns="http://www.w3.org/2000/svg" version="1.0" width="784.000000pt" height="786.000000pt" viewBox="0 0 784.000000 786.000000" preserveAspectRatio="xMidYMid meet">
<metadata>
Created by potrace 1.16, written by Peter Selinger 2001-2019
<meta name="Producer" content="Online-Convert"/></metadata>
<g transform="translate(0.000000,786.000000) scale(0.100000,-0.100000)" fill="#000000" stroke="none">
<path d="M3103 7048 l-813 -452 0 -223 c0 -123 -2 -223 -5 -223 -3 0 -98 52 -212 116 -183 103 -210 116 -233 107 -14 -6 -383 -208 -820 -451 l-795 -441 -3 -909 c-2 -720 1 -912 10 -919 7 -6 376 -211 820 -457 l806 -446 891 492 c489 271 890 495 891 498 0 7 -432 245 -440 243 -5 -1 -306 -167 -670 -369 -365 -202 -668 -367 -674 -367 -6 0 -279 149 -606 331 l-595 330 -3 656 -2 656 37 24 c21 13 291 164 601 335 356 197 569 310 580 306 9 -3 107 -56 217 -118 l200 -113 3 -444 3 -445 811 -449 c693 -384 814 -448 834 -440 13 5 381 207 818 449 l795 440 1 445 0 445 203 112 c111 62 209 115 218 118 11 4 219 -106 580 -305 310 -172 581 -323 602 -336 l37 -24 -2 -656 -3 -656 -595 -330 c-327 -182 -600 -331 -606 -331 -6 0 -309 165 -673 366 -363 202 -665 368 -669 370 -10 3 -442 -234 -442 -242 1 -3 401 -228 891 -499 l891 -492 806 446 c444 246 813 451 820 457 9 7 12 199 10 919 l-3 909 -795 441 c-437 243 -806 445 -820 451 -22 8 -52 -6 -235 -107 l-210 -116 -3 223 -2 224 -811 449 c-446 247 -814 450 -817 451 -4 1 -373 -201 -819 -449z m1500 -418 l517 -285 -3 -220 -2 -220 -600 -332 c-330 -183 -605 -332 -611 -331 -6 2 -275 151 -597 332 l-587 329 0 221 1 221 597 331 597 331 86 -46 c47 -25 318 -174 602 -331z m-1262 -1568 c306 -172 561 -312 567 -312 5 0 65 31 133 69 737 408 1053 583 1065 588 12 5 14 -22 12 -192 l-3 -197 -594 -330 c-327 -181 -602 -327 -610 -325 -9 3 -279 151 -601 329 l-585 325 -3 198 -2 197 32 -19 c18 -11 283 -160 589 -331z"/>
<path d="M7160 1719 c-272 -21 -410 -174 -410 -454 0 -300 164 -455 485 -455 260 0 425 116 442 309 l6 61 -135 0 -136 0 -10 -43 c-24 -95 -145 -146 -245 -103 -75 32 -97 86 -97 241 0 97 3 118 23 155 29 55 75 80 145 80 93 0 149 -43 167 -127 l7 -33 139 0 139 0 0 38 c0 132 -95 254 -237 304 -70 24 -181 35 -283 27z"/>
<path d="M272 1268 l3 -443 314 -3 c388 -3 448 6 522 81 50 49 64 85 63 163 0 100 -31 152 -115 192 -56 27 -59 30 -35 36 33 8 93 61 113 99 21 41 21 143 0 183 -25 49 -91 101 -148 118 -43 13 -113 16 -386 16 l-333 0 2 -442z m559 223 c24 -30 24 -72 0 -102 -18 -23 -25 -24 -138 -24 l-118 0 -3 64 c-5 97 -9 94 124 89 107 -3 117 -5 135 -27z m19 -331 c12 -12 20 -33 20 -55 0 -22 -8 -43 -20 -55 -18 -18 -33 -20 -150 -20 l-130 0 0 75 0 75 130 0 c117 0 132 -2 150 -20z"/>
<path d="M1272 1398 c4 -356 7 -372 83 -456 86 -95 222 -137 420 -129 211 9 331 71 396 203 24 48 24 53 27 372 l3 322 -150 0 -151 0 0 -288 c0 -330 -2 -339 -80 -379 -88 -45 -195 -17 -230 59 -18 39 -20 67 -20 326 l0 282 -151 0 -150 0 3 -312z"/>
<path d="M2320 1605 l0 -105 202 -2 201 -3 -216 -289 c-213 -284 -217 -291 -217 -338 l0 -48 455 0 455 0 0 110 0 110 -221 2 -220 3 215 288 c206 274 216 290 216 332 l0 45 -435 0 -435 0 0 -105z"/>
<path d="M3310 1605 l0 -105 195 0 c107 0 195 -3 195 -6 0 -4 -97 -136 -216 -295 -210 -281 -215 -289 -212 -331 l3 -43 453 -3 452 -2 0 110 0 110 -219 2 -219 3 214 285 c207 277 213 286 214 333 l0 47 -430 0 -430 0 0 -105z"/>
<path d="M4780 1265 l0 -445 150 0 150 0 0 170 0 170 165 0 165 0 0 -170 0 -170 150 0 150 0 0 445 0 445 -150 0 -150 0 0 -160 0 -160 -165 0 -165 0 0 160 0 160 -150 0 -150 0 0 -445z"/>
<path d="M5842 1268 l3 -443 150 0 150 0 3 143 3 142 132 0 c204 0 286 35 351 150 29 51 31 62 31 150 0 87 -3 100 -30 149 -16 29 -49 69 -74 87 -77 59 -111 64 -433 64 l-288 0 2 -442z m494 209 c36 -31 38 -96 4 -132 -21 -23 -31 -25 -107 -25 l-83 0 0 90 0 90 79 0 c69 0 84 -3 107 -23z"/>
</g>
</svg>
